# xmcd
#
# Track frame offsets:
#	150
#	18822
#	45704
#	63359
#	85918
#	104656
#	125753
#	142544
#	160792
#	183640
#	202097
#	222119
#	242501
#	261513
#	283208
#	302942
#	324210
#
# Disc length: 4609 seconds
#
# Revision: 1
# Processed by: cddbd v1.4PL0 Copyright (c) Steve Scherf et al.
# Submitted via: CDmax 2.0
#
DISCID=f811ff11
DTITLE=Aretha Franklin - Zounds Best
DYEAR=2002
DGENRE=Blues
TTITLE0=Freeway Of Love
TTITLE1=Sisters Are Doin' It For Themselves
TTITLE2=A Rose Is Still A Rose
TTITLE3=Jumpin' Jack Flash
TTITLE4=Love All The Hurt Away
TTITLE5=Who's Zoomin' Who?
TTITLE6=Come To Me
TTITLE7=I Knew You Were Waiting
TTITLE8=United Together
TTITLE9=He's The Boy
TTITLE10=There's A Star For Everyone
TTITLE11=Another Night
TTITLE12=He'll Come Along
TTITLE13=It Isn't, It Wasn't, It Ain't Never Gonna Be
TTITLE14=Through The Storm
TTITLE15=A Deeper Love
TTITLE16=If Ever A Love There Was
EXTD=
EXTT0=
EXTT1=
EXTT2=
EXTT3=
EXTT4=
EXTT5=
EXTT6=
EXTT7=
EXTT8=
EXTT9=
EXTT10=
EXTT11=
EXTT12=
EXTT13=
EXTT14=
EXTT15=
EXTT16=
PLAYORDER=
